<mxfile host="65bd71144e">
    <diagram id="am-E7Jr4JqGdmaWqAYG6" name="Page-1">
        <mxGraphModel dx="994" dy="654" grid="1" gridSize="10" guides="1" tooltips="1" connect="1" arrows="1" fold="1" page="1" pageScale="1" pageWidth="850" pageHeight="1100" math="0" shadow="0">
            <root>
                <mxCell id="0"/>
                <mxCell id="1" parent="0"/>
                <mxCell id="2" value="Developer Computer" style="swimlane;" vertex="1" parent="1">
                    <mxGeometry x="40" y="40" width="770" height="1020" as="geometry"/>
                </mxCell>
                <mxCell id="5" value="Production Package Installation" style="shape=umlLifeline;participant=umlEntity;perimeter=lifelinePerimeter;whiteSpace=wrap;html=1;container=1;collapsible=0;recursiveResize=0;verticalAlign=top;spacingTop=36;outlineConnect=0;direction=north;" vertex="1" parent="2">
                    <mxGeometry x="40" y="80" width="100" height="40" as="geometry"/>
                </mxCell>
                <mxCell id="6" value="SCM (GIT) Connection User, Repository, Branch," style="shape=umlLifeline;participant=umlEntity;perimeter=lifelinePerimeter;whiteSpace=wrap;html=1;container=1;collapsible=0;recursiveResize=0;verticalAlign=top;spacingTop=36;outlineConnect=0;direction=north;" vertex="1" parent="2">
                    <mxGeometry x="100" y="170" width="100" height="40" as="geometry"/>
                </mxCell>
                <mxCell id="7" value="Project(s) Creation Plaster, database" style="shape=umlLifeline;participant=umlEntity;perimeter=lifelinePerimeter;whiteSpace=wrap;html=1;container=1;collapsible=0;recursiveResize=0;verticalAlign=top;spacingTop=36;outlineConnect=0;direction=north;" vertex="1" parent="2">
                    <mxGeometry x="120" y="280" width="100" height="40" as="geometry"/>
                </mxCell>
                <mxCell id="8" value="Project(s) Test Creation Pester xUnit Selinium" style="shape=umlLifeline;participant=umlEntity;perimeter=lifelinePerimeter;whiteSpace=wrap;html=1;container=1;collapsible=0;recursiveResize=0;verticalAlign=top;spacingTop=36;outlineConnect=0;direction=north;" vertex="1" parent="2">
                    <mxGeometry x="120" y="503" width="100" height="40" as="geometry"/>
                </mxCell>
                <mxCell id="11" value="Project(s) Packaging Creation&lt;br&gt;.nuspec" style="shape=umlLifeline;participant=umlEntity;perimeter=lifelinePerimeter;whiteSpace=wrap;html=1;container=1;collapsible=0;recursiveResize=0;verticalAlign=top;spacingTop=36;outlineConnect=0;direction=north;" vertex="1" parent="2">
                    <mxGeometry x="120" y="615" width="100" height="40" as="geometry"/>
                </mxCell>
                <mxCell id="12" value="Project(s) Orchestration Creation&lt;br&gt;Jenkinsfile" style="shape=umlLifeline;participant=umlEntity;perimeter=lifelinePerimeter;whiteSpace=wrap;html=1;container=1;collapsible=0;recursiveResize=0;verticalAlign=top;spacingTop=36;outlineConnect=0;direction=north;" vertex="1" parent="2">
                    <mxGeometry x="120" y="838" width="100" height="40" as="geometry"/>
                </mxCell>
                <mxCell id="13" value="Project(s) Feature Creation, Analysis,&amp;nbsp; Testting, Benchmarking. Packaging, and Deployment" style="shape=umlLifeline;participant=umlEntity;perimeter=lifelinePerimeter;whiteSpace=wrap;html=1;container=1;collapsible=0;recursiveResize=0;verticalAlign=top;spacingTop=36;outlineConnect=0;direction=north;" vertex="1" parent="2">
                    <mxGeometry x="120" y="950" width="280" height="40" as="geometry"/>
                </mxCell>
                <mxCell id="14" value="Project(s) Analysis and&amp;nbsp; Benchmarking&amp;nbsp; Creation" style="shape=umlLifeline;participant=umlEntity;perimeter=lifelinePerimeter;whiteSpace=wrap;html=1;container=1;collapsible=0;recursiveResize=0;verticalAlign=top;spacingTop=36;outlineConnect=0;direction=north;" vertex="1" parent="2">
                    <mxGeometry x="120" y="392" width="100" height="40" as="geometry"/>
                </mxCell>
                <mxCell id="17" value="Project(s) Deployment Creation&lt;br&gt;.nupkg, PackageSources" style="shape=umlLifeline;participant=umlEntity;perimeter=lifelinePerimeter;whiteSpace=wrap;html=1;container=1;collapsible=0;recursiveResize=0;verticalAlign=top;spacingTop=36;outlineConnect=0;direction=north;" vertex="1" parent="2">
                    <mxGeometry x="120" y="727" width="100" height="40" as="geometry"/>
                </mxCell>
            </root>
        </mxGraphModel>
    </diagram>
</mxfile>